Encoder ..........: DarthMidal                                                  
Video Codec.......: XviD
Video Bitrate.....: 1 370 Kbps
Audio Codec.......: AC-3
Audio Bitrate.....: 128 kbps                          
Resolution........: 720X400
Runtime...........: 1h 28mn
Release Date......: 08/04/13
Theatrical Date...: 16 April 2013 (USA)
Language..........: English
Subtitles.........: N/A
IMDB Rating.......: 8.2
IMDB URL..........:  
http://www.imdb.com/title/tt2654124/


General
Complete name                            : E:\Iron.Man.Rise.of.Technovore.2013.WEBRip.XviD.AC3.CrEwSaDe\Iron.Man.Rise.of.Technovore.2013.WEBRip.XviD.AC3.CrEwSaDe.avi
Format                                   : AVI
Format/Info                              : Audio Video Interleave
File size                                : 1 000 MiB
Duration                                 : 1h 28mn
Overall bit rate                         : 1 582 Kbps


Video
ID                                       : 0
Format                                   : MPEG-4 Visual
Format profile                           : Advanced Simple@L5
Format settings, BVOP                    : 2
Format settings, QPel                    : No
Format settings, GMC                     : No warppoints
Format settings, Matrix                  : Default (H.263)
Codec ID                                 : XVID
Codec ID/Hint                            : XviD
Duration                                 : 1h 28mn
Bit rate                                 : 1 447 Kbps
Width                                    : 720 pixels
Height                                   : 400 pixels
Display aspect ratio                     : 16:9
Frame rate                               : 23.976 fps
Color space                              : YUV
Chroma subsampling                       : 4:2:0
Bit depth                                : 8 bits
Scan type                                : Progressive
Compression mode                         : Lossy
Bits/(Pixel*Frame)                       : 0.210
Stream size                              : 914 MiB (91%)
Writing library                          : XviD 1.2.1 (UTC 2008-12-04)

Audio
ID                                       : 1
Format                                   : AC-3
Format/Info                              : Audio Coding 3
Mode extension                           : CM (complete main)
Codec ID                                 : 2000
Duration                                 : 1h 28mn
Bit rate mode                            : Constant
Bit rate                                 : 128 Kbps
Channel(s)                               : 6 channels
Channel positions                        : Front: L C R, Side: L R, LFE
Sampling rate                            : 48.0 KHz
Bit depth                                : 16 bits
Compression mode                         : Lossy
Stream size                              : 80.6 MiB (8%)
Alignment                                : Aligned on interleaves
Interleave, duration                     : 64 ms (1.54 video frames)
Interleave, preload duration             : 192 ms
Title                                    : Iron.Man.Rise.of.Technovore.2013.1080p.WEB-DL.DD5.1.H.264-YFN - [1] English_new




SOURCES: Iron.Man.Rise.of.Technovore.2013.1080p.WEB-DL.DD5.1.H.264-YFN Thank you

VIDEO: Iron.Man.Rise.of.Technovore.2013.1080p.WEB-DL.DD5.1.H.264-YFN Thank you
AUDIO: Iron.Man.Rise.of.Technovore.2013.1080p.WEB-DL.DD5.1.H.264-YFN Thank you


Plot:
The young and insane tech genius Ezekiel Stane has developed a new techno-organic armor that seemingly outclasses Iron Man. When Stane unleashes a terrorist attack during the launch of Tony Stark's newest satellite, Iron Man is blamed. Now he must evade S.H.I.E.L.D.'s man hunt and find a way to clear his name

Screens: 
http://i1179.photobucket.com/albums/x394/crewsade/Darthmidal%20screens/DarthMidal2/vlcsnap-2013-04-08-16h37m43s204.png 
http://i1179.photobucket.com/albums/x394/crewsade/Darthmidal%20screens/DarthMidal2/vlcsnap-2013-04-08-16h37m50s21.png 
http://i1179.photobucket.com/albums/x394/crewsade/Darthmidal%20screens/DarthMidal2/vlcsnap-2013-04-08-16h38m03s152.png 
http://i1179.photobucket.com/albums/x394/crewsade/Darthmidal%20screens/DarthMidal2/vlcsnap-2013-04-08-16h38m23s97.png 
http://i1179.photobucket.com/albums/x394/crewsade/Darthmidal%20screens/DarthMidal2/vlcsnap-2013-04-08-16h38m51s120.png